<svg xmlns="http://www.w3.org/2000/svg" viewBox="0 0 800 1000" role="img" aria-label="ARMOUR — a breastplate drawn as an exploded blueprint">
  <rect width="800" height="1000" fill="#0b0b0b"/>
  <g stroke="#e8e4da" stroke-width="2" fill="none">
    <path d="M280 260 Q400 220 520 260 L540 480 Q400 560 260 480 Z"/>
    <path d="M300 300 Q400 268 500 300" stroke-dasharray="6 6"/>
    <path d="M290 380 Q400 420 510 380" stroke-dasharray="6 6"/>
    <line x1="540" y1="300" x2="660" y2="260"/>
    <line x1="540" y1="420" x2="660" y2="420"/>
    <line x1="260" y1="330" x2="140" y2="300"/>
    <line x1="270" y1="470" x2="140" y2="540"/>
    <circle cx="400" cy="700" r="46"/>
    <line x1="400" y1="630" x2="400" y2="770"/>
    <line x1="330" y1="700" x2="470" y2="700"/>
  </g>
  <g fill="#e8e4da" font-family="'Courier New', monospace" font-size="20" letter-spacing="3">
    <text x="668" y="266">TRUTH</text>
    <text x="668" y="426">FAITH</text>
    <text x="20" y="296">RIGHTEOUSNESS</text>
    <text x="30" y="546">SALVATION</text>
  </g>
  <text x="400" y="120" text-anchor="middle" fill="#e8e4da" font-family="'Courier New', monospace" font-size="56" letter-spacing="14">ARMOUR</text>
  <text x="400" y="945" text-anchor="middle" fill="#8a867c" font-family="'Courier New', monospace" font-size="20" letter-spacing="6">EPHESIANS 6 — FIG. 1</text>
</svg>
